<svg width="24" height="24" viewBox="0 0 24 24" fill="none" xmlns="http://www.w3.org/2000/svg">
<path d="M7.98899 20.5005C7.85816 20.3666 7.78491 20.1867 7.78491 19.9995C7.78491 19.8123 7.85816 19.6324 7.98899 19.4985L15.2985 12L7.98899 4.503C7.85816 4.36906 7.78491 4.18924 7.78491 4.002C7.78491 3.81476 7.85816 3.63495 7.98899 3.501C8.05259 3.43569 8.12862 3.38377 8.21261 3.34833C8.29659 3.31288 8.38683 3.29462 8.47799 3.29462C8.56915 3.29462 8.65939 3.31288 8.74338 3.34833C8.82736 3.38377 8.9034 3.43569 8.96699 3.501L16.74 11.4765C16.8765 11.6166 16.9529 11.8044 16.9529 12C16.9529 12.1956 16.8765 12.3834 16.74 12.5235L8.96699 20.499C8.9034 20.5643 8.82736 20.6162 8.74338 20.6517C8.65939 20.6871 8.56915 20.7054 8.47799 20.7054C8.38683 20.7054 8.29659 20.6871 8.21261 20.6517C8.12862 20.6162 8.05259 20.5643 7.98899 20.499V20.5005Z" fill="#FEFEFE"/>
</svg>
