<svg width="34" height="34" viewBox="0 0 34 34" fill="none" xmlns="http://www.w3.org/2000/svg">
<path d="M25.5248 8.47523C25.2204 8.17094 24.8076 8 24.3772 8C23.9468 8 23.534 8.17094 23.2296 8.47523L17.4902 14.2147L11.7508 8.47523C11.4446 8.17957 11.0346 8.01596 10.609 8.01966C10.1835 8.02336 9.77635 8.19406 9.47541 8.49501C9.17446 8.79595 9.00376 9.20306 9.00006 9.62864C8.99636 10.0542 9.15997 10.4642 9.45564 10.7704L15.1951 16.5098L9.45564 22.2492C9.15997 22.5554 8.99636 22.9654 9.00006 23.391C9.00376 23.8165 9.17446 24.2236 9.47541 24.5246C9.77635 24.8255 10.1835 24.9962 10.609 24.9999C11.0346 25.0036 11.4446 24.84 11.7508 24.5444L17.4902 18.8049L23.2296 24.5444C23.5358 24.84 23.9458 25.0036 24.3714 24.9999C24.7969 24.9962 25.204 24.8255 25.505 24.5246C25.8059 24.2236 25.9766 23.8165 25.9803 23.391C25.984 22.9654 25.8204 22.5554 25.5248 22.2492L19.7853 16.5098L25.5248 10.7704C25.8291 10.466 26 10.0532 26 9.6228C26 9.1924 25.8291 8.77962 25.5248 8.47523V8.47523Z" fill="#495867"/>
</svg>
