<svg width="210" height="44" viewBox="0 0 210 44" fill="none" xmlns="http://www.w3.org/2000/svg">
<path d="M143.592 35.216C141.648 35.216 139.908 34.796 138.372 33.956C136.86 33.116 135.672 31.964 134.808 30.5C133.944 29.012 133.512 27.332 133.512 25.46C133.512 23.588 133.944 21.92 134.808 20.456C135.672 18.968 136.86 17.816 138.372 17C139.908 16.16 141.648 15.74 143.592 15.74C145.32 15.74 146.856 16.088 148.2 16.784C149.568 17.48 150.624 18.488 151.368 19.808L148.74 21.5C148.14 20.588 147.396 19.904 146.508 19.448C145.62 18.992 144.636 18.764 143.556 18.764C142.308 18.764 141.18 19.04 140.172 19.592C139.188 20.144 138.408 20.936 137.832 21.968C137.28 22.976 137.004 24.14 137.004 25.46C137.004 26.804 137.28 27.992 137.832 29.024C138.408 30.032 139.188 30.812 140.172 31.364C141.18 31.916 142.308 32.192 143.556 32.192C144.636 32.192 145.62 31.964 146.508 31.508C147.396 31.052 148.14 30.368 148.74 29.456L151.368 31.112C150.624 32.432 149.568 33.452 148.2 34.172C146.856 34.868 145.32 35.216 143.592 35.216ZM173.626 15.92V35H170.35V32.12C169.654 33.104 168.73 33.872 167.578 34.424C166.45 34.952 165.214 35.216 163.87 35.216C161.326 35.216 159.322 34.52 157.858 33.128C156.394 31.712 155.662 29.636 155.662 26.9V15.92H159.118V26.504C159.118 28.352 159.562 29.756 160.45 30.716C161.338 31.652 162.61 32.12 164.266 32.12C166.09 32.12 167.53 31.568 168.586 30.464C169.642 29.36 170.17 27.8 170.17 25.784V15.92H173.626ZM180.206 8.288H183.662V35H180.206V8.288ZM198.432 35.216C196.536 35.216 194.832 34.796 193.32 33.956C191.808 33.116 190.62 31.964 189.756 30.5C188.916 29.012 188.496 27.332 188.496 25.46C188.496 23.588 188.916 21.92 189.756 20.456C190.62 18.968 191.808 17.816 193.32 17C194.832 16.16 196.536 15.74 198.432 15.74C200.328 15.74 202.02 16.16 203.508 17C205.02 17.816 206.196 18.968 207.036 20.456C207.9 21.92 208.332 23.588 208.332 25.46C208.332 27.332 207.9 29.012 207.036 30.5C206.196 31.964 205.02 33.116 203.508 33.956C202.02 34.796 200.328 35.216 198.432 35.216ZM198.432 32.192C199.656 32.192 200.748 31.916 201.708 31.364C202.692 30.788 203.46 29.996 204.012 28.988C204.564 27.956 204.84 26.78 204.84 25.46C204.84 24.14 204.564 22.976 204.012 21.968C203.46 20.936 202.692 20.144 201.708 19.592C200.748 19.04 199.656 18.764 198.432 18.764C197.208 18.764 196.104 19.04 195.12 19.592C194.16 20.144 193.392 20.936 192.816 21.968C192.264 22.976 191.988 24.14 191.988 25.46C191.988 26.78 192.264 27.956 192.816 28.988C193.392 29.996 194.16 30.788 195.12 31.364C196.104 31.916 197.208 32.192 198.432 32.192Z" fill="#FEFEFE"/>
<path d="M127.223 9L122.23 13.7461H119.348L123.215 9H127.223Z" fill="#FEFEFE"/>
<path d="M14.004 33.884C13.5 34.316 12.876 34.652 12.132 34.892C11.388 35.108 10.62 35.216 9.828 35.216C7.908 35.216 6.42 34.7 5.364 33.668C4.308 32.636 3.78 31.16 3.78 29.24V18.764H0.54V15.92H3.78V11.744H7.236V15.92H12.708V18.764H7.236V29.096C7.236 30.128 7.488 30.92 7.992 31.472C8.52 32.024 9.264 32.3 10.224 32.3C11.28 32.3 12.18 32 12.924 31.4L14.004 33.884ZM18.1823 15.92H21.6383V35H18.1823V15.92ZM19.9103 12.248C19.2383 12.248 18.6743 12.032 18.2183 11.6C17.7863 11.168 17.5703 10.64 17.5703 10.016C17.5703 9.392 17.7863 8.864 18.2183 8.432C18.6743 7.976 19.2383 7.748 19.9103 7.748C20.5823 7.748 21.1343 7.964 21.5663 8.396C22.0223 8.804 22.2503 9.32 22.2503 9.944C22.2503 10.592 22.0223 11.144 21.5663 11.6C21.1343 12.032 20.5823 12.248 19.9103 12.248ZM38.4249 15.74C40.8489 15.74 42.7689 16.448 44.1849 17.864C45.6249 19.256 46.3449 21.308 46.3449 24.02V35H42.8889V24.416C42.8889 22.568 42.4449 21.176 41.5569 20.24C40.6689 19.304 39.3969 18.836 37.7409 18.836C35.8689 18.836 34.3929 19.388 33.3129 20.492C32.2329 21.572 31.6929 23.132 31.6929 25.172V35H28.2369V15.92H31.5489V18.8C32.2449 17.816 33.1809 17.06 34.3569 16.532C35.5569 16.004 36.9129 15.74 38.4249 15.74ZM70.8463 8.288V35H67.5343V31.976C66.7663 33.032 65.7943 33.836 64.6183 34.388C63.4423 34.94 62.1463 35.216 60.7303 35.216C58.8823 35.216 57.2263 34.808 55.7623 33.992C54.2983 33.176 53.1463 32.036 52.3063 30.572C51.4903 29.084 51.0823 27.38 51.0823 25.46C51.0823 23.54 51.4903 21.848 52.3063 20.384C53.1463 18.92 54.2983 17.78 55.7623 16.964C57.2263 16.148 58.8823 15.74 60.7303 15.74C62.0983 15.74 63.3583 16.004 64.5103 16.532C65.6623 17.036 66.6223 17.792 67.3903 18.8V8.288H70.8463ZM61.0183 32.192C62.2183 32.192 63.3103 31.916 64.2943 31.364C65.2783 30.788 66.0463 29.996 66.5983 28.988C67.1503 27.956 67.4263 26.78 67.4263 25.46C67.4263 24.14 67.1503 22.976 66.5983 21.968C66.0463 20.936 65.2783 20.144 64.2943 19.592C63.3103 19.04 62.2183 18.764 61.0183 18.764C59.7943 18.764 58.6903 19.04 57.7063 19.592C56.7463 20.144 55.9783 20.936 55.4023 21.968C54.8503 22.976 54.5743 24.14 54.5743 25.46C54.5743 26.78 54.8503 27.956 55.4023 28.988C55.9783 29.996 56.7463 30.788 57.7063 31.364C58.6903 31.916 59.7943 32.192 61.0183 32.192ZM94.6294 25.568C94.6294 25.832 94.6054 26.18 94.5574 26.612H79.0774C79.2934 28.292 80.0254 29.648 81.2734 30.68C82.5454 31.688 84.1174 32.192 85.9894 32.192C88.2694 32.192 90.1054 31.424 91.4974 29.888L93.4054 32.12C92.5414 33.128 91.4614 33.896 90.1654 34.424C88.8934 34.952 87.4654 35.216 85.8814 35.216C83.8654 35.216 82.0774 34.808 80.5174 33.992C78.9574 33.152 77.7454 31.988 76.8814 30.5C76.0414 29.012 75.6214 27.332 75.6214 25.46C75.6214 23.612 76.0294 21.944 76.8454 20.456C77.6854 18.968 78.8254 17.816 80.2654 17C81.7294 16.16 83.3734 15.74 85.1974 15.74C87.0214 15.74 88.6414 16.16 90.0574 17C91.4974 17.816 92.6134 18.968 93.4054 20.456C94.2214 21.944 94.6294 23.648 94.6294 25.568ZM85.1974 18.656C83.5414 18.656 82.1494 19.16 81.0214 20.168C79.9174 21.176 79.2694 22.496 79.0774 24.128H91.3174C91.1254 22.52 90.4654 21.212 89.3374 20.204C88.2334 19.172 86.8534 18.656 85.1974 18.656ZM102.74 19.124C103.34 18.02 104.228 17.18 105.404 16.604C106.58 16.028 108.008 15.74 109.688 15.74V19.088C109.496 19.064 109.232 19.052 108.896 19.052C107.024 19.052 105.548 19.616 104.468 20.744C103.412 21.848 102.884 23.432 102.884 25.496V35H99.4283V15.92H102.74V19.124Z" fill="#E84578"/>
<path fill-rule="evenodd" clip-rule="evenodd" d="M127.472 17.944C126.08 16.648 124.064 16 121.424 16C119.888 16 118.436 16.216 117.068 16.648C115.7 17.056 114.524 17.656 113.54 18.448L114.98 21.04C115.724 20.416 116.636 19.924 117.716 19.564C118.796 19.18 119.9 18.988 121.028 18.988C122.708 18.988 123.98 19.384 124.844 20.176C125.708 20.968 126.14 22.108 126.14 23.596V24.28H120.668C118.004 24.28 116.06 24.796 114.836 25.828C113.612 26.836 113 28.18 113 29.86C113 31.54 113.636 32.896 114.908 33.928C116.204 34.96 117.92 35.476 120.056 35.476C121.52 35.476 122.78 35.248 123.836 34.792C124.916 34.312 125.744 33.628 126.32 32.74V35.26H129.596V23.74C129.596 21.172 128.888 19.24 127.472 17.944ZM121.862 27.3397C122.844 27.0674 123.689 27.5351 123.982 28.1067C124.393 28.907 124.222 29.8071 123.476 30.7819C122.89 31.5531 122.05 32.3202 120.836 33.2161C120.797 33.2445 120.75 33.26 120.701 33.26C120.652 33.26 120.605 33.2445 120.567 33.2161C119.35 32.3181 118.512 31.5448 117.926 30.7819C117.178 29.8071 117.007 28.907 117.418 28.1067C117.711 27.5351 118.554 27.0715 119.538 27.3397C120.008 27.4685 120.417 27.7448 120.7 28.1233C120.983 27.7448 121.392 27.4685 121.862 27.3397Z" fill="#FEFEFE"/>
</svg>
